# xmcd CD database file
#
# Track frame offsets:
#	150
#	23645
#	55985
#	75675
#	100245
#	117575
#	145835
#	176015
#	208407
#	227175
#	251095
#	278152
#
# Disc length: 4025 seconds
#
# Revision: 0
# Processed by: cddbd v1.5.2PL0 Copyright (c) Steve Scherf et al.
# Submitted via: CDex 1.51
#
DISCID=b00fb70c
DTITLE=Kenny G - Rhythm and Romance - The Latin Album
DYEAR=1900
DGENRE=Jazz
TTITLE0=Sax-O-Loco
TTITLE1=Ritmo Y Romance
TTITLE2=Sabor A Mi
TTITLE3=Tango
TTITLE4=Mirame Bailar
TTITLE5=Peruvian Nights
TTITLE6=Brasilia
TTITLE7=Besame Mucho
TTITLE8=Fiesta Loca
TTITLE9=Es Hora De Decir
TTITLE10=Copa De Amor
TTITLE11=Salsa Kenny
EXTD=
EXTT0=
EXTT1=
EXTT2=
EXTT3=
EXTT4=
EXTT5=
EXTT6=
EXTT7=
EXTT8=
EXTT9=
EXTT10=
EXTT11=
PLAYORDER=
